<?xml version="1.0" encoding="UTF-8"?>
<svg id="Layer_2" xmlns="http://www.w3.org/2000/svg" viewBox="0 0 389.36 88.01"><defs><style>.cls-1{fill:#005cab;}.cls-2{fill:#231f20;}</style></defs><path class="cls-2" d="m83.77,22.92c1.48,1.81,3.61,4.34,8.8,4.34,3.76,0,6.58-1.94,6.58-5.38,0-7.22-14.15-6.32-14.15-14.28,0-4.99,4.7-7.44,9.94-7.44,2.57,0,5.09.26,7.62.26v4c-2.23-2.02-3.56-2.54-6.87-2.54s-6.03,1.51-6.03,4.73c0,6.62,14.15,5.81,14.15,14.02,0,5.33-5.98,8.35-11.52,8.35-2.42,0-6.23-.69-8.51-1.51v-4.56Z"/><path class="cls-2" d="m117.97,28.92c-8.57,0-12.33-5.6-12.33-12.52,0-7.38,4.49-13.53,12.98-13.53s12.33,5.6,12.33,12.52c0,7.39-4.49,13.53-12.98,13.53Zm.33-24.34c-5.88,0-8.41,5.13-8.41,10.73,0,5.13,1.84,11.9,8.41,11.9,5.88,0,8.41-5.13,8.41-10.73,0-5.13-1.84-11.9-8.41-11.9Z"/><path class="cls-2" d="m154.95,3.49c-.9,1.36-.9,3.38-.9,5.13v14.62c0,1.75,0,3.77.9,5.05l-4.86.23.16-2.57c0-.12-.08-.16-.2-.16-.08,0-.25.23-.49.43-1.59,1.28-4.08,2.68-7.88,2.68-4.73,0-7.88-1.83-8-6.61v-13.68c0-1.75,0-3.77-.9-5.13h5.47c-.9,1.36-.9,3.38-.9,5.13v11.35c.12,4.16,1.92,6.69,6.53,6.69s6.2-2.84,6.33-7.46c.04-1.48.16-2.99.16-4.47v-6.1c0-1.75,0-3.77-.9-5.13h5.47Z"/><path class="cls-2" d="m164.83,28.3c.9-1.32.9-3.34.9-5.09V5.44h-5.43c-.94,0-1.88.12-2.9.85l.82-2.8h20.53c-.69,1.67-3.18,1.94-4.86,1.94h-4.49v17.77c0,1.75,0,3.77.9,5.09h-5.47Z"/><path class="cls-2" d="m197.12,8.59c0-1.75-.04-3.54-.94-5.09h5.55c-.9,1.56-.94,3.34-.94,5.09v14.62c0,1.75.04,3.54.94,5.09h-5.55c.9-1.56.94-3.34.94-5.09v-7.5h-12.08v7.5c0,1.75.04,3.54.94,5.09h-5.55c.9-1.56.94-3.34.94-5.09v-14.62c0-1.75-.04-3.54-.94-5.09h5.55c-.9,1.56-.94,3.34-.94,5.09v5.56h12.08v-5.56Z"/><path class="cls-2" d="m236.36,5.8h-.13c-1.04-1.86-2.51-3.89-6.97-3.89-6.79,0-9.48,5.58-9.48,11.73,0,6.79,3.46,12.07,10.56,12.07,3.72,0,6.23-1.6,7.49-2.99v.26c0,1.95-3.12,6.01-9.87,6.01-7.87,0-12.72-6.23-12.68-14.15,0-8.87,5.24-14.84,14.02-14.84,2.51,0,4.33.35,7.23.35l-.17,5.45Z"/><path class="cls-2" d="m259.38,28.3l-4.47-10.95h-9.24c-1.77,3.4-3.61,7.23-3.61,9.46,0,.51.04.98.12,1.49h-5.13l.9-1.09c2.34-2.82,10.8-19.59,10.8-22.8l.04-1.06h4.84c2.63,7.78,5.26,16.27,9.36,23.5l.82,1.45h-4.44Zm-8.05-20.88c-.08-.28-.33-.94-.7-.94s-.62.74-.7.94l-3.57,8.37h7.84l-2.87-8.37Z"/><path class="cls-2" d="m282.25,24.66c1.19,1.53,1.77,2.15,3.45,3.64h-3.37c-1.77,0-2.55-.9-3.45-2.15l-5.01-6.8c-1.73-2.35-2.01-3.01-4.39-3.21v7.04c0,1.76,0,3.79.9,5.12h-5.71c1.19-1.8,1.11-3.68,1.11-5.36v-14.47c0-1.76,0-3.79-.9-5.12,3.45,0,6.73-.39,9.94-.39,4.19,0,6.36,2.19,6.36,5.24,0,3.6-3.12,5.94-6.08,7.08l7.15,9.39Zm-12.77-10.05c.62.08,1.23.12,1.85.12,3.98,0,6.16-2.04,6.16-5.75,0-3.91-2.34-4.38-6-4.46h-1.93c-.04.59-.08,1.25-.08,1.88v8.21Z"/><path class="cls-2" d="m296.17,28.92c-8.62,0-12.4-5.63-12.4-12.59,0-7.43,4.52-13.61,13.06-13.61s12.4,5.63,12.4,12.59c0,7.43-4.52,13.61-13.06,13.61Zm.33-24.48c-5.91,0-8.46,5.16-8.46,10.79,0,5.16,1.85,11.97,8.46,11.97,5.91,0,8.46-5.16,8.46-10.79,0-5.16-1.85-11.97-8.46-11.97Z"/><path class="cls-2" d="m312.08,8.47c0-1.76,0-3.79-.99-5.12h6.03c-.99,1.33-.99,3.36-.99,5.12v18.26h5.46c2.52,0,4.81-.31,7.06-2.23l-.85,3.67c-.9.08-1.84.12-2.74.12h-14.5c1.35-1.53,1.53-7.04,1.53-8.88v-10.95Z"/><path class="cls-2" d="m331.88,8.47c0-1.76,0-3.79-.91-5.12h5.5c-.9,1.33-.9,3.36-.9,5.12v14.71c0,1.76,0,3.79.9,5.12h-5.5c.91-1.33.91-3.36.91-5.12v-14.71Z"/><path class="cls-2" d="m339.88,28.3c1.44-3.21,1.44-7.98,1.44-11.42v-8.33c0-1.92-.08-4.03-1.31-5.2h4.15c.78,0,1.15,0,1.64.62.86,1.1,3.49,5.28,4.76,7l8.17,10.99c.29.39.62.94.86.94.29,0,.29-.39.29-.74v-13.81c0-2.66-.41-3.99-.98-5.01h4.27c-.98,1.8-1.23,3.83-1.23,5.83v15.64c0,1.29.04,2.46.08,3.64h-2.92l-15.03-20.37c-.17-.23-.29-.43-.45-.43s-.25.24-.25.59v10.05c0,3.13-.08,7.08,1.23,10.01h-4.72Z"/><path class="cls-2" d="m384.93,28.52l-4.47-10.95h-9.24c-1.76,3.4-3.61,7.23-3.61,9.47,0,.51.04.98.12,1.49h-5.13l.9-1.09c2.34-2.82,10.8-19.59,10.8-22.8l.04-1.05h4.84c2.63,7.78,5.26,16.27,9.36,23.5l.82,1.45h-4.44Zm-8.05-20.88c-.08-.27-.33-.94-.7-.94s-.62.74-.7.94l-3.57,8.37h7.84l-2.87-8.37Z"/><path class="cls-2" d="m88.84,60.73c0,1.78,0,3.82,1,5.17h-6.08c1-1.34,1-3.39,1-5.17v-14.83c0-1.77.09-3.82-.91-5.17h14.06c1.13,0,2.09,0,2.09.36v3.08h-.23c-1.27-1.81-4.13-1.85-6.26-1.85h-4.67v10.13c3.49,0,7.16,0,10.66-.28-1.59,2.25-6.71,2.25-9.52,2.25h-1.13v6.31Z"/><path class="cls-2" d="m118.27,64.32h5.22c2.81,0,5.71-.59,7.84-2.25l-.82,3.63c-1.22.08-2.72.2-4.35.2h-13.1c1-1.34,1.13-3.39,1.13-5.17v-14.83c0-1.77,0-3.82-1-5.17h15.83l.18,3.04c-1.59-1.18-4.04-1.46-6.71-1.46h-4.22v9.42c3.49,0,7.16,0,10.66-.28-1.59,2.25-6.71,2.25-9.52,2.25h-1.13v10.61Z"/><path class="cls-2" d="m144.12,45.9c0-1.77,0-3.82-1-5.17,4.58,0,9.16-.39,13.78-.39,7.57,0,12.74,4.97,12.74,12.02,0,8.79-6.98,13.68-15.6,13.68-4.58,0-7.75-.16-10.93-.16,1-1.34,1-3.39,1-5.17v-14.83Zm4.08,15.57c0,2.84.91,3,5.8,3,8.07,0,10.93-4.97,10.93-11.43,0-6.82-4.26-11.12-12.38-11.12-1.68,0-3.31.16-4.31.32,0,.59-.05,1.22-.05,1.85v17.39Z"/><path class="cls-2" d="m186.56,64.32h5.22c2.81,0,5.71-.59,7.84-2.25l-.82,3.63c-1.22.08-2.72.2-4.35.2h-13.1c1-1.34,1.13-3.39,1.13-5.17v-14.83c0-1.77,0-3.82-1-5.17h15.83l.18,3.04c-1.59-1.18-4.04-1.46-6.71-1.46h-4.22v9.42c3.49,0,7.16,0,10.66-.28-1.59,2.25-6.71,2.25-9.52,2.25h-1.13v10.61Z"/><path class="cls-2" d="m231.45,62.22c1.31,1.54,1.95,2.17,3.81,3.67h-3.72c-1.95,0-2.81-.91-3.81-2.17l-5.53-6.86c-1.9-2.37-2.22-3.04-4.85-3.23v7.1c0,1.78,0,3.82,1,5.17h-6.3c1.31-1.82,1.22-3.71,1.22-5.4v-14.59c0-1.77,0-3.82-1-5.17,3.81,0,7.43-.39,10.97-.39,4.62,0,7.03,2.21,7.03,5.28,0,3.63-3.45,5.99-6.71,7.14l7.89,9.46Zm-14.1-10.13c.68.08,1.36.12,2.04.12,4.4,0,6.8-2.05,6.8-5.79,0-3.94-2.59-4.42-6.62-4.5h-2.13c-.05.59-.09,1.26-.09,1.89v8.28Z"/><path class="cls-2" d="m265.5,65.89l-4.94-11.04h-10.2c-1.95,3.43-3.99,7.29-3.99,9.54,0,.51.04.99.14,1.5h-5.67l1-1.1c2.58-2.84,11.93-19.76,11.93-22.99l.05-1.06h5.35c2.9,7.85,5.8,16.4,10.34,23.7l.91,1.46h-4.9Zm-8.89-21.06c-.09-.28-.36-.95-.77-.95s-.68.75-.77.95l-3.95,8.44h8.66l-3.17-8.44Z"/><path class="cls-2" d="m282.28,45.9c0-1.77,0-3.82-1-5.17h6.08c-1,1.34-1,3.39-1,5.17v18.41h6.51c2.54,0,4.85-.32,7.12-2.25l-.86,3.71c-.91.08-1.86.12-2.77.12h-15.63c1.36-1.54,1.54-7.1,1.54-8.95v-11.04Z"/><path class="cls-2" d="m92.62,78.68h-.06c-.44-.75-1.06-1.57-2.94-1.57-2.87,0-4,2.25-4,4.72,0,2.73,1.46,4.86,4.46,4.86,1.57,0,2.63-.64,3.16-1.2v.1c0,.78-1.32,2.42-4.17,2.42-3.33,0-5.37-2.51-5.36-5.69,0-3.57,2.21-5.97,5.92-5.97,1.06,0,1.83.14,3.05.14l-.07,2.19Z"/><path class="cls-2" d="m106.22,86.11c.53.68.79.96,1.54,1.62h-1.5c-.79,0-1.13-.4-1.54-.96l-2.23-3.03c-.77-1.04-.9-1.34-1.96-1.43v3.13c0,.78,0,1.69.4,2.28h-2.54c.53-.8.49-1.63.49-2.38v-6.44c0-.79,0-1.69-.4-2.29,1.54,0,3-.17,4.42-.17,1.87,0,2.83.97,2.83,2.34,0,1.6-1.39,2.64-2.71,3.15l3.18,4.18Zm-5.69-4.47c.28.03.55.05.82.05,1.77,0,2.74-.91,2.74-2.56,0-1.74-1.04-1.95-2.67-1.98h-.86c-.02.26-.04.56-.04.84v3.65Z"/><path class="cls-2" d="m114.05,87.04h2.1c1.13,0,2.3-.26,3.16-.99l-.33,1.6c-.49.03-1.1.08-1.76.08h-5.28c.4-.59.46-1.5.46-2.28v-6.54c0-.79,0-1.69-.41-2.29h6.38l.07,1.35c-.64-.53-1.63-.64-2.71-.64h-1.7v4.16c1.41,0,2.89,0,4.3-.12-.64.99-2.71.99-3.84.99h-.46v4.68Z"/><path class="cls-2" d="m124.47,78.91c0-.79,0-1.69-.4-2.29,1.85,0,3.7-.17,5.56-.17,3.05,0,5.14,2.2,5.14,5.31,0,3.89-2.82,6.04-6.29,6.04-1.85,0-3.12-.07-4.41-.07.4-.59.4-1.5.4-2.28v-6.54Zm1.64,6.88c0,1.25.37,1.32,2.34,1.32,3.25,0,4.4-2.2,4.4-5.05,0-3.01-1.72-4.91-4.99-4.91-.68,0-1.33.07-1.74.14,0,.26-.02.54-.02.82v7.68Z"/><path class="cls-2" d="m140.08,78.91c0-.79,0-1.69-.4-2.29h2.45c-.4.59-.4,1.5-.4,2.29v6.54c0,.78,0,1.69.4,2.28h-2.45c.4-.59.4-1.5.4-2.28v-6.54Z"/><path class="cls-2" d="m150.02,87.73c.4-.59.4-1.5.4-2.28v-7.96h-2.43c-.42,0-.84.05-1.3.38l.37-1.26h9.2c-.31.75-1.43.87-2.18.87h-2.01v7.96c0,.78,0,1.69.4,2.28h-2.45Z"/><path class="cls-2" d="m179.31,76.62c-.41.62-.41,1.52-.41,2.3v6.55c0,.78,0,1.69.41,2.26l-2.18.11.07-1.15c0-.05-.04-.07-.09-.07-.04,0-.11.1-.22.19-.71.58-1.83,1.2-3.52,1.2-2.12,0-3.53-.82-3.58-2.96v-6.13c0-.78,0-1.69-.4-2.3h2.44c-.4.62-.4,1.52-.4,2.3v5.09c.06,1.86.86,3,2.92,3s2.78-1.27,2.83-3.34c.02-.66.07-1.34.07-2v-2.73c0-.78,0-1.69-.4-2.3h2.45Z"/><path class="cls-2" d="m185.03,87.73c.64-1.43.64-3.55.64-5.08v-3.71c0-.85-.04-1.79-.59-2.32h1.85c.35,0,.51,0,.73.28.39.49,1.55,2.35,2.12,3.12l3.64,4.89c.13.17.27.42.38.42.13,0,.13-.17.13-.33v-6.14c0-1.18-.18-1.78-.44-2.23h1.9c-.44.8-.55,1.71-.55,2.6v6.96c0,.57.02,1.1.04,1.62h-1.3l-6.69-9.07c-.07-.11-.13-.19-.21-.19s-.11.11-.11.26v4.48c0,1.39-.03,3.15.55,4.45h-2.1Z"/><path class="cls-2" d="m201.33,78.91c0-.79,0-1.69-.4-2.29h2.45c-.4.59-.4,1.5-.4,2.29v6.54c0,.78,0,1.69.4,2.28h-2.45c.4-.59.4-1.5.4-2.28v-6.54Z"/><path class="cls-2" d="m213.92,88.01c-3.84,0-5.52-2.51-5.52-5.61,0-3.31,2.01-6.06,5.81-6.06s5.52,2.5,5.52,5.61c0,3.31-2.02,6.06-5.81,6.06Zm.15-10.9c-2.63,0-3.77,2.3-3.77,4.81,0,2.3.82,5.33,3.77,5.33,2.63,0,3.76-2.3,3.76-4.81,0-2.29-.82-5.33-3.76-5.33Z"/><path class="cls-2" d="m223.99,87.73c.64-1.43.64-3.55.64-5.08v-3.71c0-.85-.04-1.79-.59-2.32h1.84c.35,0,.52,0,.74.28.38.49,1.55,2.35,2.12,3.12l3.64,4.89c.13.17.27.42.38.42.13,0,.13-.17.13-.33v-6.14c0-1.18-.18-1.78-.44-2.23h1.9c-.43.8-.55,1.71-.55,2.6v6.96c0,.57.02,1.1.04,1.62h-1.3l-6.69-9.07c-.07-.11-.13-.19-.21-.19s-.11.11-.11.26v4.48c0,1.39-.04,3.15.55,4.45h-2.1Z"/><path class="cls-2" d="m240.98,76.34c1.52,0,2.83,1.18,2.83,2.79s-1.3,2.8-2.83,2.8-2.84-1.18-2.84-2.8,1.3-2.79,2.84-2.79Zm0,.45c-1.3,0-2.3,1-2.3,2.34s1,2.35,2.3,2.35,2.28-.99,2.28-2.35-1-2.34-2.28-2.34Zm-.6,3.96h-.5v-3.23h1.24c.77,0,1.15.29,1.15.92,0,.58-.36.83-.84.89l.92,1.42h-.54l-.86-1.4h-.56v1.4Zm0-1.81h.59c.6,0,.8-.17.8-.53,0-.31-.15-.48-.72-.48h-.67v1.01Z"/><path class="cls-1" d="m16.88,9.46c-.24-.69-.55-1.33-.9-1.94,2.75,1.11,5.04,3.35,6.1,6.37,1.95,5.56-.98,11.65-6.54,13.59-4.87,1.71-10.15-.32-12.69-4.59,2.31.92,4.96,1.05,7.5.16,5.56-1.95,8.48-8.04,6.53-13.6Z"/><path class="cls-1" d="m47.77,86.18h-30.79l1.11-4.01c-1.18.56-4.15,2.35-6.85,4.01h-3.97c2.57-3.57,8.14-8.29,8.14-8.29-5.46.11-13.21,4.48-13.21,4.48,1.46-3.64,14.05-8.97,14.05-8.97-2.43-.97-13.79.81-13.79.81,7.97-3.97,17.42-5.91,17.42-5.91-6.78-2.18-16.23-.48-16.23-.48l11.87-4.12c-2.36-1.13-13.25-2.54-13.25-2.54l12.7-2.3L0,54.65l21.85,1.78c-1.84-2.07-12.63-5.46-12.63-5.46,3.94,0,15.51.37,15.51.37-3.54-.74-16.69-5.99-16.69-5.99,4.33.38,14.47,2.23,14.47,2.23-1.18-.75-7.77-5.61-7.77-5.61,2.37-.37,13.75,5.39,13.75,5.39-.39-1.12-6.26-7.27-6.26-7.27,2.36,0,14.45,7.27,14.45,7.27l-8.53-10.64s10.42,6.03,9.64,3.78c-.79-2.25-5.7-9.41-5.7-9.41,1.18,0,15,10.73,15,10.73-.39-3.38-7.9-14.86-7.9-14.86,1.57,0,9.06,6.37,9.06,6.37-.39-3.75-1.18-8.99-1.18-8.99l6.54,9.8.24-9.45,2.91,5.7v46.81c0,4.95-4.03,8.98-8.97,8.98Z"/></svg>